<?xml version="1.0" encoding="UTF-8" standalone="no"?>
<!DOCTYPE svg PUBLIC "-//W3C//DTD SVG 1.1//EN" "http://www.w3.org/Graphics/SVG/1.1/DTD/svg11.dtd">
<svg width="100%" height="100%" viewBox="0 0 2000 572" version="1.1" xmlns="http://www.w3.org/2000/svg" xmlns:xlink="http://www.w3.org/1999/xlink" xml:space="preserve" xmlns:serif="http://www.serif.com/" style="fill-rule:evenodd;clip-rule:evenodd;stroke-linejoin:round;stroke-miterlimit:2;">
    <g id="Vrstva-1" serif:id="Vrstva 1" transform="matrix(2.51984,0,0,2.51984,0,0)">
        <g id="path1" transform="matrix(1.33333,0,0,-1.33333,0,226.772)">
            <path d="M244.297,164.738C111.589,149.807 22.632,122.39 22.632,91.024C22.632,43.71 225.166,5.342 475.014,5.342C477.787,5.342 480.553,5.346 483.315,5.355C466.187,5.396 449.289,5.619 432.668,6.013C208.955,11.318 35.797,47.736 35.797,91.887C35.797,122.469 118.881,149.344 244.297,164.738" style="fill:white;"/>
        </g>
        <g id="path3" transform="matrix(1.33333,0,0,-1.33333,0,226.772)">
            <path d="M285.682,75.01L286.826,80.954L253.389,80.954L256.671,97.944L287.539,97.944L288.702,103.907L257.834,103.907L260.61,118.347L293.203,118.347L294.347,124.292L254.908,124.292L245.382,75.009L285.682,75.01Z" style="fill:white;"/>
        </g>
        <g id="path5" transform="matrix(1.33333,0,0,-1.33333,0,226.772)">
            <path d="M301.96,75.01L311.487,124.292L304.642,124.292L295.115,75.01L301.96,75.01Z" style="fill:white;"/>
        </g>
        <g id="path7" transform="matrix(1.33333,0,0,-1.33333,0,226.772)">
            <path d="M324.802,103.289C327.277,104.827 330.146,105.595 333.371,105.595C336.934,105.595 339.654,104.62 341.529,102.707C342.729,101.451 343.254,99.575 343.104,97.1L319.963,97.1C320.676,99.669 322.307,101.751 324.802,103.289ZM335.753,81.536C333.765,80.579 331.515,80.111 329.002,80.111C325.589,80.111 322.926,81.048 321.032,82.942C319.12,84.855 318.369,87.574 318.801,91.155L348.768,91.155C348.936,91.868 349.049,92.412 349.124,92.787C350.268,98.731 349.461,103.345 346.705,106.627C343.948,109.909 339.897,111.54 334.553,111.54C329.04,111.54 324.22,109.871 320.113,106.551C316.006,103.232 313.362,98.563 312.218,92.543C311.093,86.73 311.918,82.211 314.731,78.985C317.544,75.76 321.876,74.166 327.727,74.166C332.359,74.166 336.372,75.122 339.729,77.053C343.066,78.985 345.655,81.704 347.436,85.211L340.873,86.055C339.428,83.992 337.722,82.473 335.753,81.536" style="fill:white;"/>
        </g>
        <g id="path9" transform="matrix(1.33333,0,0,-1.33333,0,226.772)">
            <path d="M376.448,81.985C374.553,80.729 372.378,80.111 369.903,80.111C366.827,80.111 364.52,81.123 363.001,83.149C361.464,85.174 361.126,88.418 362.008,92.881C362.851,97.288 364.445,100.495 366.789,102.539C369.133,104.583 371.853,105.595 374.984,105.595C377.048,105.595 378.698,105.089 379.973,104.095C381.229,103.101 381.98,101.62 382.167,99.651L389.2,100.495C389.125,104.039 387.962,106.758 385.711,108.671C383.442,110.584 380.254,111.54 376.11,111.54C372.828,111.54 369.659,110.809 366.583,109.365C363.508,107.921 361.032,105.745 359.101,102.858C357.188,99.95 355.856,96.575 355.106,92.712C353.943,86.748 354.656,82.155 357.225,78.947C359.813,75.76 363.732,74.166 368.983,74.166C373.165,74.166 376.916,75.291 380.254,77.541C383.555,79.792 385.955,82.923 387.418,86.898L380.723,87.761C379.785,85.155 378.36,83.223 376.448,81.985" style="fill:white;"/>
        </g>
        <g id="path11" transform="matrix(1.33333,0,0,-1.33333,0,226.772)">
            <path d="M403.696,80.111C402.683,80.111 401.914,80.241 401.445,80.523C400.958,80.804 400.639,81.16 400.489,81.648C400.32,82.117 400.414,83.167 400.732,84.817L404.577,104.752L411.441,104.752L412.603,110.696L405.74,110.696L408.14,123.167L400.583,119.548L398.876,110.696L393.738,110.696L392.575,104.752L397.732,104.752L393.869,84.78C393.194,81.255 393.006,78.929 393.362,77.841C393.7,76.735 394.469,75.834 395.707,75.159C396.944,74.503 398.782,74.166 401.257,74.166C402.758,74.166 404.521,74.353 406.509,74.728L406.677,80.073C405.439,80.091 404.446,80.11 403.695,80.11" style="fill:white;"/>
        </g>
        <g id="path13" transform="matrix(1.33333,0,0,-1.33333,0,226.772)">
            <path d="M418.548,75.01L422.205,93.893C422.693,96.481 423.518,98.863 424.643,101.038C425.355,102.464 426.331,103.588 427.568,104.395C428.806,105.183 430.081,105.595 431.431,105.595C432.931,105.595 434.357,105.089 435.67,104.077L438.952,109.627C437.001,110.903 434.957,111.54 432.838,111.54C431.356,111.54 429.931,111.165 428.562,110.396C427.174,109.627 425.524,108.033 423.611,105.633L424.587,110.696L418.604,110.696L411.703,75.01L418.548,75.01Z" style="fill:white;"/>
        </g>
        <g id="path15" transform="matrix(1.33333,0,0,-1.33333,0,226.772)">
            <path d="M450.053,102.426C452.491,104.545 455.248,105.595 458.342,105.595C461.38,105.595 463.725,104.545 465.356,102.407C466.987,100.288 467.4,97.175 466.612,93.049C465.769,88.68 464.118,85.435 461.68,83.298C459.242,81.16 456.467,80.111 453.429,80.111C450.335,80.111 447.99,81.16 446.34,83.279C444.709,85.398 444.333,88.586 445.159,92.862C445.965,97.119 447.616,100.307 450.053,102.426ZM440.47,78.985C443.077,75.76 447.015,74.166 452.266,74.166C455.529,74.166 458.698,74.897 461.755,76.341C464.812,77.803 467.306,79.848 469.276,82.492C471.226,85.118 472.651,88.755 473.532,93.35C474.639,99.032 473.87,103.495 471.207,106.721C468.563,109.927 464.643,111.54 459.486,111.54C454.854,111.54 450.653,110.227 446.922,107.583C442.459,104.376 439.57,99.463 438.276,92.843C437.113,86.805 437.845,82.192 440.47,78.985" style="fill:white;"/>
        </g>
        <g id="path17" transform="matrix(1.33333,0,0,-1.33333,0,226.772)">
            <path d="M485.422,75.01L489.097,94.081C489.96,98.544 491.536,101.582 493.842,103.195C496.149,104.789 498.662,105.595 501.418,105.595C503.125,105.595 504.569,105.239 505.694,104.526C506.838,103.814 507.551,102.858 507.813,101.676C508.076,100.475 507.982,98.676 507.513,96.256L503.425,75.01L510.288,75.01L514.527,96.988C515.07,99.782 515.333,101.751 515.314,102.858C515.258,104.583 514.883,106.083 514.17,107.339C513.477,108.577 512.239,109.609 510.495,110.377C508.732,111.146 506.725,111.54 504.475,111.54C499.243,111.54 494.874,109.571 491.348,105.633L492.323,110.696L485.46,110.696L478.558,75.01L485.422,75.01Z" style="fill:white;"/>
        </g>
        <g id="path19" transform="matrix(1.33333,0,0,-1.33333,0,226.772)">
            <path d="M527.429,75.01L534.33,110.696L527.467,110.696L520.565,75.01L527.429,75.01ZM535.793,118.347L536.955,124.292L530.092,124.292L528.948,118.347L535.793,118.347Z" style="fill:white;"/>
        </g>
        <g id="path21" transform="matrix(1.33333,0,0,-1.33333,0,226.772)">
            <path d="M559.909,81.985C558.015,80.729 555.821,80.111 553.364,80.111C550.271,80.111 547.983,81.123 546.445,83.149C544.926,85.174 544.588,88.418 545.451,92.881C546.295,97.288 547.889,100.495 550.233,102.539C552.577,104.583 555.315,105.595 558.428,105.595C560.491,105.595 562.16,105.089 563.435,104.095C564.691,103.101 565.423,101.62 565.61,99.651L572.643,100.495C572.586,104.039 571.424,106.758 569.173,108.671C566.904,110.584 563.697,111.54 559.553,111.54C556.271,111.54 553.102,110.809 550.045,109.365C546.97,107.921 544.476,105.745 542.562,102.858C540.631,99.95 539.3,96.575 538.549,92.712C537.406,86.748 538.118,82.155 540.688,78.947C543.257,75.76 547.176,74.166 552.426,74.166C556.628,74.166 560.378,75.291 563.697,77.541C567.017,79.792 569.399,82.923 570.88,86.898L564.185,87.761C563.228,85.155 561.803,83.223 559.909,81.985" style="fill:white;"/>
        </g>
        <g id="path23" transform="matrix(1.33333,0,0,-1.33333,0,226.772)">
            <path d="M123.468,91.643L122.68,87.592C120.261,86.561 118.161,85.829 116.342,85.398C114.541,84.967 112.685,84.742 110.809,84.742C106.815,84.742 103.927,85.848 102.126,88.08C100.345,90.293 99.933,93.987 100.945,99.163C101.883,104.039 103.664,107.602 106.271,109.852C108.878,112.102 112.01,113.228 115.666,113.228C118.104,113.228 120.036,112.778 121.461,111.896C122.868,110.996 123.73,109.721 124.087,108.052L140.814,110.415C140.458,113.603 139.52,116.247 137.964,118.347C136.426,120.411 134.289,121.948 131.55,122.96C128.793,123.955 124.461,124.461 118.517,124.461C112.366,124.461 107.321,123.655 103.364,122.06C98.301,119.997 94.175,116.978 90.987,113.022C87.799,109.027 85.68,104.358 84.649,98.994C83.655,93.874 83.88,89.336 85.324,85.398C86.768,81.461 89.318,78.498 92.957,76.51C96.594,74.503 101.602,73.528 107.996,73.528C113.191,73.528 117.785,74.11 121.799,75.253C125.812,76.416 130.575,78.591 136.108,81.779L140.215,102.876L114.504,102.876L112.329,91.643L123.468,91.643Z" style="fill:white;"/>
        </g>
        <g id="path25" transform="matrix(1.33333,0,0,-1.33333,0,226.772)">
            <path d="M144.096,74.391L158.667,74.391L161.33,88.192L146.778,88.192L144.096,74.391Z" style="fill:white;"/>
        </g>
        <g id="path27" transform="matrix(1.33333,0,0,-1.33333,0,226.772)">
            <path d="M169.788,74.391L213.483,74.391L215.827,86.467L189.272,86.467L196.474,123.579L179.333,123.579L169.788,74.391Z" style="fill:white;"/>
        </g>
        <g id="path29" transform="matrix(1.33333,0,0,-1.33333,0,226.772)">
            <path d="M219.465,74.391L234.036,74.391L236.718,88.192L222.147,88.192L219.465,74.391Z" style="fill:white;"/>
        </g>
        <g id="path31" transform="matrix(1.33333,0,0,1.36794,357.708,157.264)">
            <path d="M6.142,-4.842L6.142,-4.294C6.142,-3.517 6.083,-2.935 5.931,-2.581C5.779,-2.227 5.451,-2.044 4.958,-2.044C4.642,-2.044 4.419,-2.135 4.244,-2.295C4.08,-2.467 3.962,-2.718 3.88,-3.061C3.798,-3.392 3.763,-3.826 3.751,-4.363C3.728,-4.9 3.728,-5.528 3.728,-6.259L3.728,-6.499C3.728,-7.173 3.751,-7.778 3.763,-8.281C3.787,-8.772 3.81,-9.194 3.904,-9.514C3.986,-9.823 4.103,-10.074 4.267,-10.222C4.431,-10.371 4.665,-10.462 4.958,-10.462C5.427,-10.462 5.744,-10.279 5.908,-9.914C6.083,-9.537 6.165,-8.954 6.177,-8.143L9.025,-8.143L9.025,-8.258C9.025,-11.307 7.665,-12.827 4.912,-12.827C3.318,-12.827 2.169,-12.278 1.466,-11.193C1.15,-10.702 0.962,-10.074 0.88,-9.263C0.798,-8.44 0.763,-7.447 0.763,-6.259C0.763,-5.082 0.798,-4.077 0.88,-3.266C0.962,-2.444 1.15,-1.816 1.466,-1.336C2.181,-0.251 3.353,0.298 4.958,0.298C6.365,0.298 7.396,-0.068 8.064,-0.81C8.708,-1.564 9.048,-2.695 9.048,-4.214L9.048,-4.534C9.048,-4.625 9.048,-4.728 9.025,-4.842L6.142,-4.842ZM10.232,0.001L16.244,0.001L16.244,-2.113L13.08,-2.113L16.244,-7.424L16.244,-9.411L10.443,-9.411L10.443,-7.241L13.419,-7.241L10.232,-1.861L10.232,0.001ZM19.914,-5.973C19.903,-6.065 19.903,-6.156 19.903,-6.247L19.903,-6.499C19.903,-6.978 19.973,-7.333 20.102,-7.538C20.231,-7.755 20.465,-7.881 20.805,-7.881C21.414,-7.881 21.719,-7.424 21.719,-6.533L21.719,-6.259C21.707,-6.179 21.707,-6.076 21.684,-5.973L19.914,-5.973ZM21.614,-3.3C21.637,-3.209 21.637,-3.129 21.649,-3.061L21.649,-2.844C21.649,-2.044 21.356,-1.644 20.758,-1.644C20.383,-1.644 20.137,-1.781 20.02,-2.067C19.891,-2.352 19.821,-2.798 19.821,-3.415C19.821,-3.552 19.821,-3.7 19.832,-3.849C19.832,-3.997 19.832,-4.157 19.856,-4.351L24.133,-4.351L24.133,-5.482C24.133,-6.156 24.098,-6.739 24.051,-7.264C23.981,-7.778 23.782,-8.223 23.465,-8.612C22.903,-9.309 22,-9.663 20.77,-9.663C19.539,-9.663 18.625,-9.343 18.039,-8.692C17.84,-8.475 17.688,-8.223 17.571,-7.938C17.454,-7.664 17.36,-7.355 17.301,-7.024C17.254,-6.693 17.219,-6.327 17.207,-5.928C17.184,-5.528 17.184,-5.094 17.184,-4.614C17.184,-3.677 17.243,-2.901 17.325,-2.25C17.407,-1.599 17.641,-1.085 18.004,-0.662C18.25,-0.388 18.625,-0.171 19.071,0.001C19.516,0.172 20.055,0.252 20.653,0.252C22.938,0.252 24.086,-0.845 24.086,-3.061L24.086,-3.3L21.614,-3.3ZM29.744,-3.7C29.744,-3.609 29.744,-3.552 29.767,-3.483L29.767,-3.266C29.767,-2.729 29.697,-2.33 29.58,-2.078C29.462,-1.816 29.251,-1.678 28.958,-1.678C28.583,-1.678 28.349,-1.93 28.267,-2.432C28.185,-2.912 28.126,-3.677 28.126,-4.694C28.126,-5.208 28.126,-5.665 28.15,-6.042C28.162,-6.43 28.197,-6.727 28.244,-6.978C28.302,-7.23 28.384,-7.412 28.501,-7.527C28.619,-7.641 28.759,-7.698 28.982,-7.698C29.275,-7.698 29.497,-7.572 29.615,-7.333C29.732,-7.081 29.779,-6.681 29.779,-6.133L29.779,-5.859L32.31,-5.859L32.31,-6.03C32.31,-7.275 32.04,-8.189 31.513,-8.772C30.962,-9.354 30.107,-9.663 28.958,-9.663C28.302,-9.663 27.751,-9.56 27.294,-9.377C26.849,-9.194 26.486,-8.897 26.216,-8.498C25.935,-8.098 25.747,-7.572 25.63,-6.956C25.513,-6.327 25.466,-5.573 25.466,-4.694C25.466,-3.814 25.513,-3.061 25.63,-2.444C25.747,-1.816 25.935,-1.302 26.216,-0.902C26.486,-0.502 26.849,-0.216 27.294,-0.034C27.751,0.172 28.302,0.252 28.958,0.252C31.208,0.252 32.345,-0.947 32.345,-3.335L32.345,-3.517C32.322,-3.563 32.322,-3.632 32.322,-3.7L29.744,-3.7ZM33.892,0.001L36.505,0.001L36.505,-5.882C36.505,-6.407 36.587,-6.807 36.751,-7.093C36.927,-7.355 37.162,-7.492 37.443,-7.492C37.771,-7.492 37.97,-7.344 38.017,-7.058C38.076,-6.773 38.111,-6.362 38.111,-5.813L38.111,0.001L40.724,0.001L40.724,-6.556C40.724,-7.572 40.548,-8.338 40.232,-8.84C39.915,-9.343 39.376,-9.594 38.626,-9.594C37.654,-9.594 36.962,-9.194 36.505,-8.406L36.505,-12.518L33.892,-12.518L33.892,0.001ZM52.074,-4.842L52.074,-4.294C52.074,-3.517 52.015,-2.935 51.863,-2.581C51.71,-2.227 51.382,-2.044 50.89,-2.044C50.574,-2.044 50.351,-2.135 50.175,-2.295C50.011,-2.467 49.894,-2.718 49.812,-3.061C49.73,-3.392 49.695,-3.826 49.683,-4.363C49.66,-4.9 49.66,-5.528 49.66,-6.259L49.66,-6.499C49.66,-7.173 49.683,-7.778 49.695,-8.281C49.718,-8.772 49.742,-9.194 49.835,-9.514C49.917,-9.823 50.035,-10.074 50.199,-10.222C50.363,-10.371 50.597,-10.462 50.89,-10.462C51.359,-10.462 51.675,-10.279 51.839,-9.914C52.015,-9.537 52.097,-8.954 52.109,-8.143L54.956,-8.143L54.956,-8.258C54.956,-11.307 53.597,-12.827 50.843,-12.827C49.249,-12.827 48.101,-12.278 47.398,-11.193C47.081,-10.702 46.894,-10.074 46.812,-9.263C46.73,-8.44 46.695,-7.447 46.695,-6.259C46.695,-5.082 46.73,-4.077 46.812,-3.266C46.894,-2.444 47.081,-1.816 47.398,-1.336C48.113,-0.251 49.285,0.298 50.89,0.298C52.296,0.298 53.328,-0.068 53.996,-0.81C54.64,-1.564 54.98,-2.695 54.98,-4.214L54.98,-4.534C54.98,-4.625 54.98,-4.728 54.956,-4.842L52.074,-4.842ZM56.492,-4.694C56.492,-3.814 56.538,-3.061 56.656,-2.444C56.773,-1.816 56.96,-1.302 57.242,-0.902C57.511,-0.502 57.874,-0.216 58.32,-0.034C58.777,0.172 59.328,0.252 59.984,0.252C60.652,0.252 61.226,0.172 61.671,-0.034C62.117,-0.216 62.468,-0.502 62.738,-0.902C63.007,-1.302 63.206,-1.816 63.324,-2.444C63.441,-3.061 63.488,-3.814 63.488,-4.694C63.488,-5.573 63.441,-6.327 63.324,-6.956C63.206,-7.572 63.019,-8.098 62.749,-8.498C62.468,-8.897 62.117,-9.194 61.671,-9.377C61.226,-9.56 60.652,-9.663 59.984,-9.663C59.328,-9.663 58.777,-9.56 58.32,-9.377C57.874,-9.194 57.511,-8.897 57.242,-8.498C56.972,-8.098 56.796,-7.572 56.679,-6.956C56.562,-6.327 56.492,-5.573 56.492,-4.694ZM59.152,-4.694C59.152,-5.208 59.152,-5.665 59.175,-6.042C59.187,-6.43 59.222,-6.727 59.269,-6.978C59.328,-7.23 59.41,-7.412 59.527,-7.527C59.644,-7.641 59.785,-7.698 59.984,-7.698C60.183,-7.698 60.359,-7.641 60.476,-7.527C60.593,-7.412 60.675,-7.23 60.722,-6.978C60.769,-6.727 60.792,-6.43 60.804,-6.042C60.816,-5.665 60.816,-5.208 60.816,-4.694C60.816,-4.18 60.816,-3.734 60.804,-3.346C60.792,-2.969 60.769,-2.661 60.722,-2.432C60.675,-2.181 60.593,-2.01 60.476,-1.896C60.359,-1.781 60.183,-1.713 59.984,-1.713C59.785,-1.713 59.644,-1.781 59.527,-1.896C59.41,-2.01 59.328,-2.181 59.269,-2.432C59.222,-2.661 59.187,-2.969 59.175,-3.346C59.152,-3.734 59.152,-4.18 59.152,-4.694ZM65.017,0.001L67.501,0.001L67.501,-5.882C67.501,-6.407 67.583,-6.807 67.747,-7.093C67.923,-7.355 68.134,-7.492 68.404,-7.492C68.72,-7.492 68.896,-7.355 68.955,-7.115C69.001,-6.841 69.037,-6.464 69.037,-5.962L69.037,0.001L71.497,0.001L71.497,-5.882C71.497,-6.407 71.58,-6.807 71.744,-7.093C71.919,-7.355 72.13,-7.492 72.4,-7.492C72.716,-7.492 72.892,-7.355 72.951,-7.115C72.997,-6.841 73.033,-6.464 73.033,-5.962L73.033,0.001L75.54,0.001L75.54,-6.556C75.54,-7.572 75.4,-8.338 75.095,-8.84C74.779,-9.343 74.263,-9.594 73.525,-9.594C73.068,-9.594 72.669,-9.491 72.318,-9.274C71.966,-9.057 71.626,-8.737 71.345,-8.292C70.994,-9.16 70.396,-9.594 69.517,-9.594C69.048,-9.594 68.65,-9.491 68.298,-9.297C67.947,-9.08 67.63,-8.737 67.349,-8.292L67.349,-9.411L65.017,-9.411L65.017,0.001ZM77.278,3.165L79.891,3.165L79.891,-0.833C80.372,-0.102 80.993,0.263 81.754,0.263C82.305,0.263 82.739,0.172 83.055,-0.045C83.372,-0.262 83.618,-0.582 83.805,-1.016C83.969,-1.427 84.086,-1.987 84.133,-2.627C84.192,-3.278 84.204,-4.066 84.204,-4.945C84.204,-5.916 84.168,-6.716 84.122,-7.344C84.075,-7.972 83.887,-8.498 83.571,-8.875C83.161,-9.377 82.575,-9.628 81.813,-9.628C80.887,-9.628 80.196,-9.194 79.692,-8.338L79.692,-9.411L77.278,-9.411L77.278,3.165ZM80.688,-1.964C80.336,-1.964 80.125,-2.135 80.008,-2.467C79.891,-2.798 79.844,-3.335 79.844,-4.066C79.844,-4.648 79.844,-5.151 79.856,-5.573C79.879,-5.996 79.914,-6.362 79.961,-6.647C80.008,-6.933 80.114,-7.127 80.231,-7.275C80.336,-7.412 80.524,-7.481 80.758,-7.481C81.11,-7.481 81.321,-7.298 81.438,-6.944C81.543,-6.59 81.59,-6.03 81.59,-5.265C81.59,-4.683 81.59,-4.191 81.579,-3.78C81.555,-3.369 81.508,-3.015 81.461,-2.752C81.391,-2.478 81.309,-2.284 81.192,-2.17C81.075,-2.033 80.911,-1.964 80.688,-1.964ZM90.283,0.001L93.037,0.001C92.884,-0.285 92.802,-0.65 92.767,-1.085C92.72,-1.519 92.697,-2.033 92.697,-2.627L92.697,-6.259C92.697,-6.613 92.697,-6.91 92.685,-7.195C92.662,-7.481 92.638,-7.732 92.568,-7.961C92.497,-8.178 92.404,-8.395 92.263,-8.578C92.134,-8.76 91.947,-8.92 91.701,-9.092C91.419,-9.274 91.08,-9.423 90.669,-9.526C90.247,-9.628 89.755,-9.674 89.181,-9.674C87.974,-9.674 87.072,-9.423 86.486,-8.909C85.912,-8.395 85.607,-7.607 85.607,-6.533L88.22,-6.533L88.22,-6.59C88.22,-7.378 88.537,-7.778 89.181,-7.778C89.732,-7.778 90.001,-7.492 90.001,-6.933C90.001,-6.716 89.955,-6.544 89.849,-6.407C89.755,-6.282 89.603,-6.156 89.415,-6.065C89.216,-5.962 88.982,-5.859 88.701,-5.779C88.419,-5.676 88.091,-5.562 87.716,-5.414C86.908,-5.094 86.322,-4.694 85.935,-4.248C85.56,-3.792 85.372,-3.198 85.372,-2.467C85.372,-1.644 85.595,-1.016 86.017,-0.536C86.439,-0.045 87.025,0.183 87.775,0.183C88.689,0.183 89.474,-0.171 90.13,-0.867L90.283,0.001ZM89.955,-4.534L89.955,-3.483C89.955,-2.912 89.872,-2.501 89.72,-2.215C89.568,-1.93 89.275,-1.781 88.853,-1.781C88.583,-1.781 88.384,-1.861 88.22,-2.044C88.068,-2.227 87.986,-2.467 87.986,-2.764C87.986,-3.198 88.15,-3.552 88.466,-3.826C88.783,-4.111 89.287,-4.351 89.955,-4.534ZM94.452,0.001L97.065,0.001L97.065,-5.882C97.065,-6.407 97.147,-6.807 97.311,-7.093C97.475,-7.355 97.709,-7.492 98.014,-7.492C98.342,-7.492 98.541,-7.344 98.6,-7.058C98.647,-6.773 98.682,-6.362 98.682,-5.813L98.682,0.001L101.295,0.001L101.295,-6.556C101.295,-7.572 101.131,-8.338 100.815,-8.84C100.498,-9.343 99.948,-9.594 99.198,-9.594C98.694,-9.594 98.248,-9.491 97.873,-9.297C97.51,-9.08 97.194,-8.737 96.901,-8.292L96.901,-9.411L94.452,-9.411L94.452,0.001ZM102.289,-9.411L104.14,-0.913C104.21,-0.593 104.269,-0.319 104.328,-0.102C104.374,0.115 104.386,0.298 104.386,0.446C104.386,0.903 104.093,1.131 103.507,1.131L103.308,1.131C103.226,1.12 103.144,1.12 103.062,1.097L103.062,3.062C103.507,3.13 103.859,3.165 104.14,3.165C104.691,3.165 105.136,3.096 105.511,2.97C105.851,2.81 106.156,2.593 106.402,2.296C106.636,1.988 106.835,1.588 107.011,1.086C107.152,0.583 107.328,-0.034 107.468,-0.765L109.331,-9.411L106.742,-9.411L105.804,-3.346L104.89,-9.411L102.289,-9.411ZM115.27,0.001L117.883,0.001L117.883,-7.412L119.008,-7.412L119.008,-9.411L117.883,-9.411C117.86,-9.457 117.86,-9.514 117.86,-9.56L117.86,-9.72C117.86,-10.062 117.93,-10.291 118.059,-10.439C118.176,-10.576 118.399,-10.645 118.692,-10.645L118.844,-10.645C118.891,-10.645 118.961,-10.645 119.008,-10.622L119.008,-12.518C118.645,-12.552 118.317,-12.575 118.012,-12.575C117.52,-12.575 117.086,-12.518 116.735,-12.438C116.383,-12.335 116.102,-12.187 115.879,-11.97C115.668,-11.753 115.504,-11.479 115.399,-11.125C115.305,-10.771 115.247,-10.359 115.247,-9.88C115.247,-9.788 115.247,-9.72 115.27,-9.663L115.27,-9.411L114.204,-9.411L114.204,-7.412L115.27,-7.412L115.27,0.001ZM120.031,-4.694C120.031,-3.814 120.078,-3.061 120.195,-2.444C120.312,-1.816 120.499,-1.302 120.781,-0.902C121.05,-0.502 121.414,-0.216 121.859,-0.034C122.316,0.172 122.867,0.252 123.523,0.252C124.191,0.252 124.765,0.172 125.21,-0.034C125.656,-0.216 126.007,-0.502 126.277,-0.902C126.546,-1.302 126.746,-1.816 126.863,-2.444C126.98,-3.061 127.027,-3.814 127.027,-4.694C127.027,-5.573 126.98,-6.327 126.863,-6.956C126.746,-7.572 126.558,-8.098 126.289,-8.498C126.007,-8.897 125.656,-9.194 125.21,-9.377C124.765,-9.56 124.191,-9.663 123.523,-9.663C122.867,-9.663 122.316,-9.56 121.859,-9.377C121.414,-9.194 121.05,-8.897 120.781,-8.498C120.511,-8.098 120.335,-7.572 120.218,-6.956C120.101,-6.327 120.031,-5.573 120.031,-4.694ZM122.691,-4.694C122.691,-5.208 122.691,-5.665 122.714,-6.042C122.726,-6.43 122.761,-6.727 122.808,-6.978C122.867,-7.23 122.949,-7.412 123.066,-7.527C123.183,-7.641 123.324,-7.698 123.523,-7.698C123.722,-7.698 123.898,-7.641 124.015,-7.527C124.132,-7.412 124.214,-7.23 124.261,-6.978C124.308,-6.727 124.331,-6.43 124.343,-6.042C124.355,-5.665 124.355,-5.208 124.355,-4.694C124.355,-4.18 124.355,-3.734 124.343,-3.346C124.331,-2.969 124.308,-2.661 124.261,-2.432C124.214,-2.181 124.132,-2.01 124.015,-1.896C123.898,-1.781 123.722,-1.713 123.523,-1.713C123.324,-1.713 123.183,-1.781 123.066,-1.896C122.949,-2.01 122.867,-2.181 122.808,-2.432C122.761,-2.661 122.726,-2.969 122.714,-3.346C122.691,-3.734 122.691,-4.18 122.691,-4.694ZM128.506,0.001L131.12,0.001L131.12,-4.511C131.12,-5.276 131.19,-5.848 131.342,-6.19C131.471,-6.544 131.776,-6.716 132.256,-6.716C132.467,-6.716 132.737,-6.681 133.041,-6.613L133.041,-9.594C132.186,-9.514 131.471,-9.012 130.92,-8.098L130.92,-9.411L128.506,-9.411L128.506,0.001ZM138.019,0.001L140.96,0.001L141.335,-2.398L143.632,-2.398L143.996,0.001L146.925,0.001L144.23,-12.518L140.749,-12.518L138.019,0.001ZM141.628,-4.66L142.484,-10.12L143.316,-4.66L141.628,-4.66ZM150.435,-5.973C150.423,-6.065 150.423,-6.156 150.423,-6.247L150.423,-6.499C150.423,-6.978 150.494,-7.333 150.623,-7.538C150.751,-7.755 150.986,-7.881 151.326,-7.881C151.935,-7.881 152.24,-7.424 152.24,-6.533L152.24,-6.259C152.228,-6.179 152.228,-6.076 152.205,-5.973L150.435,-5.973ZM152.134,-3.3C152.158,-3.209 152.158,-3.129 152.169,-3.061L152.169,-2.844C152.169,-2.044 151.876,-1.644 151.279,-1.644C150.904,-1.644 150.658,-1.781 150.541,-2.067C150.412,-2.352 150.341,-2.798 150.341,-3.415C150.341,-3.552 150.341,-3.7 150.353,-3.849C150.353,-3.997 150.353,-4.157 150.376,-4.351L154.654,-4.351L154.654,-5.482C154.654,-6.156 154.619,-6.739 154.572,-7.264C154.501,-7.778 154.302,-8.223 153.986,-8.612C153.423,-9.309 152.521,-9.663 151.29,-9.663C150.06,-9.663 149.146,-9.343 148.56,-8.692C148.361,-8.475 148.208,-8.223 148.091,-7.938C147.974,-7.664 147.88,-7.355 147.822,-7.024C147.775,-6.693 147.74,-6.327 147.728,-5.928C147.705,-5.528 147.705,-5.094 147.705,-4.614C147.705,-3.677 147.763,-2.901 147.845,-2.25C147.927,-1.599 148.162,-1.085 148.525,-0.662C148.771,-0.388 149.146,-0.171 149.591,0.001C150.037,0.172 150.576,0.252 151.173,0.252C153.458,0.252 154.607,-0.845 154.607,-3.061L154.607,-3.3L152.134,-3.3ZM156.186,0.001L158.799,0.001L158.799,-4.511C158.799,-5.276 158.87,-5.848 159.022,-6.19C159.151,-6.544 159.455,-6.716 159.936,-6.716C160.147,-6.716 160.416,-6.681 160.721,-6.613L160.721,-9.594C159.866,-9.514 159.151,-9.012 158.6,-8.098L158.6,-9.411L156.186,-9.411L156.186,0.001ZM161.749,-4.694C161.749,-3.814 161.796,-3.061 161.914,-2.444C162.031,-1.816 162.218,-1.302 162.499,-0.902C162.769,-0.502 163.132,-0.216 163.578,-0.034C164.035,0.172 164.585,0.252 165.242,0.252C165.91,0.252 166.484,0.172 166.929,-0.034C167.374,-0.216 167.726,-0.502 167.996,-0.902C168.265,-1.302 168.464,-1.816 168.581,-2.444C168.699,-3.061 168.746,-3.814 168.746,-4.694C168.746,-5.573 168.699,-6.327 168.581,-6.956C168.464,-7.572 168.277,-8.098 168.007,-8.498C167.726,-8.897 167.374,-9.194 166.929,-9.377C166.484,-9.56 165.91,-9.663 165.242,-9.663C164.585,-9.663 164.035,-9.56 163.578,-9.377C163.132,-9.194 162.769,-8.897 162.499,-8.498C162.23,-8.098 162.054,-7.572 161.937,-6.956C161.82,-6.327 161.749,-5.573 161.749,-4.694ZM164.41,-4.694C164.41,-5.208 164.41,-5.665 164.433,-6.042C164.445,-6.43 164.48,-6.727 164.527,-6.978C164.585,-7.23 164.667,-7.412 164.785,-7.527C164.902,-7.641 165.042,-7.698 165.242,-7.698C165.441,-7.698 165.617,-7.641 165.734,-7.527C165.851,-7.412 165.933,-7.23 165.98,-6.978C166.027,-6.727 166.05,-6.43 166.062,-6.042C166.074,-5.665 166.074,-5.208 166.074,-4.694C166.074,-4.18 166.074,-3.734 166.062,-3.346C166.05,-2.969 166.027,-2.661 165.98,-2.432C165.933,-2.181 165.851,-2.01 165.734,-1.896C165.617,-1.781 165.441,-1.713 165.242,-1.713C165.042,-1.713 164.902,-1.781 164.785,-1.896C164.667,-2.01 164.585,-2.181 164.527,-2.432C164.48,-2.661 164.445,-2.969 164.433,-3.346C164.41,-3.734 164.41,-4.18 164.41,-4.694ZM169.712,-2.981L169.712,-2.752C169.712,-1.793 169.994,-1.062 170.556,-0.548C171.13,-0.011 171.927,0.252 172.982,0.252C174.06,0.252 174.904,-0.011 175.49,-0.536C176.076,-1.05 176.357,-1.781 176.357,-2.729C176.357,-3.163 176.31,-3.529 176.193,-3.849C176.076,-4.157 175.888,-4.431 175.677,-4.683C175.455,-4.934 175.173,-5.151 174.845,-5.345C174.494,-5.528 174.107,-5.733 173.662,-5.928C173.439,-6.03 173.24,-6.11 173.064,-6.19C172.876,-6.282 172.724,-6.362 172.607,-6.442C172.49,-6.533 172.396,-6.647 172.326,-6.761C172.255,-6.876 172.232,-7.013 172.232,-7.173C172.232,-7.412 172.314,-7.595 172.455,-7.744C172.607,-7.892 172.83,-7.961 173.087,-7.961C173.404,-7.961 173.626,-7.858 173.755,-7.664C173.873,-7.447 173.943,-7.115 173.955,-6.647L176.251,-6.647L176.251,-6.807C176.251,-7.732 175.994,-8.44 175.443,-8.92C174.892,-9.411 174.095,-9.663 173.041,-9.663C172.525,-9.663 172.08,-9.594 171.681,-9.457C171.283,-9.309 170.943,-9.126 170.662,-8.875C170.38,-8.623 170.181,-8.338 170.029,-7.995C169.876,-7.641 169.818,-7.264 169.818,-6.841C169.818,-6.464 169.876,-6.11 170.029,-5.756C170.158,-5.414 170.357,-5.117 170.626,-4.842C170.966,-4.5 171.341,-4.226 171.763,-4.031C172.173,-3.826 172.595,-3.632 173.029,-3.415C173.322,-3.266 173.556,-3.129 173.72,-2.992C173.896,-2.866 173.978,-2.661 173.978,-2.398C173.978,-2.147 173.896,-1.953 173.72,-1.793C173.556,-1.644 173.345,-1.564 173.076,-1.564C172.443,-1.564 172.115,-2.033 172.056,-2.981L169.712,-2.981ZM177.655,3.165L180.268,3.165L180.268,-0.833C180.748,-0.102 181.37,0.263 182.131,0.263C182.682,0.263 183.116,0.172 183.432,-0.045C183.748,-0.262 183.995,-0.582 184.182,-1.016C184.346,-1.427 184.463,-1.987 184.51,-2.627C184.569,-3.278 184.58,-4.066 184.58,-4.945C184.58,-5.916 184.545,-6.716 184.498,-7.344C184.452,-7.972 184.264,-8.498 183.948,-8.875C183.538,-9.377 182.952,-9.628 182.19,-9.628C181.264,-9.628 180.573,-9.194 180.069,-8.338L180.069,-9.411L177.655,-9.411L177.655,3.165ZM181.065,-1.964C180.713,-1.964 180.502,-2.135 180.385,-2.467C180.268,-2.798 180.221,-3.335 180.221,-4.066C180.221,-4.648 180.221,-5.151 180.233,-5.573C180.256,-5.996 180.291,-6.362 180.338,-6.647C180.385,-6.933 180.491,-7.127 180.608,-7.275C180.713,-7.412 180.901,-7.481 181.135,-7.481C181.487,-7.481 181.698,-7.298 181.815,-6.944C181.92,-6.59 181.967,-6.03 181.967,-5.265C181.967,-4.683 181.967,-4.191 181.955,-3.78C181.932,-3.369 181.885,-3.015 181.838,-2.752C181.768,-2.478 181.686,-2.284 181.569,-2.17C181.452,-2.033 181.288,-1.964 181.065,-1.964L181.065,-1.964ZM190.66,0.001L193.413,0.001C193.261,-0.285 193.179,-0.65 193.144,-1.085C193.097,-1.519 193.074,-2.033 193.074,-2.627L193.074,-6.259C193.074,-6.613 193.074,-6.91 193.062,-7.195C193.039,-7.481 193.015,-7.732 192.945,-7.961C192.874,-8.178 192.781,-8.395 192.64,-8.578C192.511,-8.76 192.324,-8.92 192.078,-9.092C191.796,-9.274 191.457,-9.423 191.046,-9.526C190.624,-9.628 190.132,-9.674 189.558,-9.674C188.351,-9.674 187.449,-9.423 186.863,-8.909C186.289,-8.395 185.984,-7.607 185.984,-6.533L188.597,-6.533L188.597,-6.59C188.597,-7.378 188.914,-7.778 189.558,-7.778C190.109,-7.778 190.378,-7.492 190.378,-6.933C190.378,-6.716 190.331,-6.544 190.226,-6.407C190.132,-6.282 189.98,-6.156 189.792,-6.065C189.593,-5.962 189.359,-5.859 189.078,-5.779C188.796,-5.676 188.468,-5.562 188.093,-5.414C187.285,-5.094 186.699,-4.694 186.312,-4.248C185.937,-3.792 185.749,-3.198 185.749,-2.467C185.749,-1.644 185.972,-1.016 186.394,-0.536C186.816,-0.045 187.402,0.183 188.152,0.183C189.066,0.183 189.851,-0.171 190.507,-0.867L190.66,0.001ZM190.331,-4.534L190.331,-3.483C190.331,-2.912 190.249,-2.501 190.097,-2.215C189.945,-1.93 189.652,-1.781 189.23,-1.781C188.96,-1.781 188.761,-1.861 188.597,-2.044C188.445,-2.227 188.363,-2.467 188.363,-2.764C188.363,-3.198 188.527,-3.552 188.843,-3.826C189.16,-4.111 189.664,-4.351 190.331,-4.534ZM198.836,-3.7C198.836,-3.609 198.836,-3.552 198.86,-3.483L198.86,-3.266C198.86,-2.729 198.789,-2.33 198.672,-2.078C198.555,-1.816 198.344,-1.678 198.051,-1.678C197.676,-1.678 197.442,-1.93 197.36,-2.432C197.278,-2.912 197.219,-3.677 197.219,-4.694C197.219,-5.208 197.219,-5.665 197.243,-6.042C197.254,-6.43 197.289,-6.727 197.336,-6.978C197.395,-7.23 197.477,-7.412 197.594,-7.527C197.711,-7.641 197.852,-7.698 198.075,-7.698C198.367,-7.698 198.59,-7.572 198.707,-7.333C198.825,-7.081 198.871,-6.681 198.871,-6.133L198.871,-5.859L201.403,-5.859L201.403,-6.03C201.403,-7.275 201.133,-8.189 200.606,-8.772C200.055,-9.354 199.2,-9.663 198.051,-9.663C197.395,-9.663 196.844,-9.56 196.387,-9.377C195.942,-9.194 195.578,-8.897 195.309,-8.498C195.028,-8.098 194.84,-7.572 194.723,-6.956C194.606,-6.327 194.559,-5.573 194.559,-4.694C194.559,-3.814 194.606,-3.061 194.723,-2.444C194.84,-1.816 195.028,-1.302 195.309,-0.902C195.578,-0.502 195.942,-0.216 196.387,-0.034C196.844,0.172 197.395,0.252 198.051,0.252C200.301,0.252 201.438,-0.947 201.438,-3.335L201.438,-3.517C201.414,-3.563 201.414,-3.632 201.414,-3.7L198.836,-3.7ZM205.531,-5.973C205.519,-6.065 205.519,-6.156 205.519,-6.247L205.519,-6.499C205.519,-6.978 205.589,-7.333 205.718,-7.538C205.847,-7.755 206.081,-7.881 206.421,-7.881C207.031,-7.881 207.335,-7.424 207.335,-6.533L207.335,-6.259C207.324,-6.179 207.324,-6.076 207.3,-5.973L205.531,-5.973ZM207.23,-3.3C207.253,-3.209 207.253,-3.129 207.265,-3.061L207.265,-2.844C207.265,-2.044 206.972,-1.644 206.374,-1.644C205.999,-1.644 205.753,-1.781 205.636,-2.067C205.507,-2.352 205.437,-2.798 205.437,-3.415C205.437,-3.552 205.437,-3.7 205.449,-3.849C205.449,-3.997 205.449,-4.157 205.472,-4.351L209.749,-4.351L209.749,-5.482C209.749,-6.156 209.714,-6.739 209.667,-7.264C209.597,-7.778 209.398,-8.223 209.081,-8.612C208.519,-9.309 207.617,-9.663 206.386,-9.663C205.156,-9.663 204.242,-9.343 203.656,-8.692C203.456,-8.475 203.304,-8.223 203.187,-7.938C203.07,-7.664 202.976,-7.355 202.917,-7.024C202.871,-6.693 202.835,-6.327 202.824,-5.928C202.8,-5.528 202.8,-5.094 202.8,-4.614C202.8,-3.677 202.859,-2.901 202.941,-2.25C203.023,-1.599 203.257,-1.085 203.621,-0.662C203.867,-0.388 204.242,-0.171 204.687,0.001C205.132,0.172 205.671,0.252 206.269,0.252C208.554,0.252 209.703,-0.845 209.703,-3.061L209.703,-3.3L207.23,-3.3ZM217.455,0.001L220.396,0.001L220.396,-10.097L222.857,-10.097L222.857,-12.518L215.111,-12.518L215.111,-10.097L217.455,-10.097L217.455,0.001ZM225.098,-5.973C225.086,-6.065 225.086,-6.156 225.086,-6.247L225.086,-6.499C225.086,-6.978 225.157,-7.333 225.286,-7.538C225.415,-7.755 225.649,-7.881 225.989,-7.881C226.598,-7.881 226.903,-7.424 226.903,-6.533L226.903,-6.259C226.891,-6.179 226.891,-6.076 226.868,-5.973L225.098,-5.973ZM226.797,-3.3C226.821,-3.209 226.821,-3.129 226.832,-3.061L226.832,-2.844C226.832,-2.044 226.54,-1.644 225.942,-1.644C225.567,-1.644 225.321,-1.781 225.204,-2.067C225.075,-2.352 225.004,-2.798 225.004,-3.415C225.004,-3.552 225.004,-3.7 225.016,-3.849C225.016,-3.997 225.016,-4.157 225.039,-4.351L229.317,-4.351L229.317,-5.482C229.317,-6.156 229.282,-6.739 229.235,-7.264C229.165,-7.778 228.965,-8.223 228.649,-8.612C228.086,-9.309 227.184,-9.663 225.954,-9.663C224.723,-9.663 223.809,-9.343 223.223,-8.692C223.024,-8.475 222.872,-8.223 222.754,-7.938C222.637,-7.664 222.543,-7.355 222.485,-7.024C222.438,-6.693 222.403,-6.327 222.391,-5.928C222.368,-5.528 222.368,-5.094 222.368,-4.614C222.368,-3.677 222.426,-2.901 222.508,-2.25C222.59,-1.599 222.825,-1.085 223.188,-0.662C223.434,-0.388 223.809,-0.171 224.254,0.001C224.7,0.172 225.239,0.252 225.836,0.252C228.122,0.252 229.27,-0.845 229.27,-3.061L229.27,-3.3L226.797,-3.3ZM234.927,-3.7C234.927,-3.609 234.927,-3.552 234.951,-3.483L234.951,-3.266C234.951,-2.729 234.88,-2.33 234.763,-2.078C234.646,-1.816 234.435,-1.678 234.142,-1.678C233.767,-1.678 233.533,-1.93 233.451,-2.432C233.369,-2.912 233.31,-3.677 233.31,-4.694C233.31,-5.208 233.31,-5.665 233.333,-6.042C233.345,-6.43 233.38,-6.727 233.427,-6.978C233.486,-7.23 233.568,-7.412 233.685,-7.527C233.802,-7.641 233.943,-7.698 234.165,-7.698C234.458,-7.698 234.681,-7.572 234.798,-7.333C234.915,-7.081 234.962,-6.681 234.962,-6.133L234.962,-5.859L237.493,-5.859L237.493,-6.03C237.493,-7.275 237.224,-8.189 236.697,-8.772C236.146,-9.354 235.29,-9.663 234.142,-9.663C233.486,-9.663 232.935,-9.56 232.478,-9.377C232.033,-9.194 231.669,-8.897 231.4,-8.498C231.118,-8.098 230.931,-7.572 230.814,-6.956C230.697,-6.327 230.65,-5.573 230.65,-4.694C230.65,-3.814 230.697,-3.061 230.814,-2.444C230.931,-1.816 231.118,-1.302 231.4,-0.902C231.669,-0.502 232.033,-0.216 232.478,-0.034C232.935,0.172 233.486,0.252 234.142,0.252C236.392,0.252 237.529,-0.947 237.529,-3.335L237.529,-3.517C237.505,-3.563 237.505,-3.632 237.505,-3.7L234.927,-3.7ZM239.079,0.001L241.692,0.001L241.692,-5.882C241.692,-6.407 241.774,-6.807 241.938,-7.093C242.114,-7.355 242.348,-7.492 242.629,-7.492C242.957,-7.492 243.157,-7.344 243.204,-7.058C243.262,-6.773 243.297,-6.362 243.297,-5.813L243.297,0.001L245.911,0.001L245.911,-6.556C245.911,-7.572 245.735,-8.338 245.418,-8.84C245.102,-9.343 244.563,-9.594 243.813,-9.594C242.84,-9.594 242.149,-9.194 241.692,-8.406L241.692,-12.518L239.078,-12.518L239.079,0.001ZM247.557,0.001L250.17,0.001L250.17,-5.882C250.17,-6.407 250.252,-6.807 250.416,-7.093C250.581,-7.355 250.815,-7.492 251.12,-7.492C251.448,-7.492 251.647,-7.344 251.706,-7.058C251.752,-6.773 251.788,-6.362 251.788,-5.813L251.788,0.001L254.401,0.001L254.401,-6.556C254.401,-7.572 254.237,-8.338 253.92,-8.84C253.604,-9.343 253.053,-9.594 252.303,-9.594C251.799,-9.594 251.354,-9.491 250.979,-9.297C250.616,-9.08 250.299,-8.737 250.006,-8.292L250.006,-9.411L247.557,-9.411L247.557,0.001ZM255.901,-4.694C255.901,-3.814 255.948,-3.061 256.065,-2.444C256.182,-1.816 256.37,-1.302 256.651,-0.902C256.92,-0.502 257.284,-0.216 257.729,-0.034C258.186,0.172 258.737,0.252 259.393,0.252C260.061,0.252 260.635,0.172 261.08,-0.034C261.526,-0.216 261.877,-0.502 262.147,-0.902C262.416,-1.302 262.616,-1.816 262.733,-2.444C262.85,-3.061 262.897,-3.814 262.897,-4.694C262.897,-5.573 262.85,-6.327 262.733,-6.956C262.616,-7.572 262.428,-8.098 262.159,-8.498C261.877,-8.897 261.526,-9.194 261.08,-9.377C260.635,-9.56 260.061,-9.663 259.393,-9.663C258.737,-9.663 258.186,-9.56 257.729,-9.377C257.284,-9.194 256.92,-8.897 256.651,-8.498C256.381,-8.098 256.205,-7.572 256.088,-6.956C255.971,-6.327 255.901,-5.573 255.901,-4.694ZM258.561,-4.694C258.561,-5.208 258.561,-5.665 258.584,-6.042C258.596,-6.43 258.631,-6.727 258.678,-6.978C258.737,-7.23 258.819,-7.412 258.936,-7.527C259.053,-7.641 259.194,-7.698 259.393,-7.698C259.592,-7.698 259.768,-7.641 259.885,-7.527C260.002,-7.412 260.084,-7.23 260.131,-6.978C260.178,-6.727 260.201,-6.43 260.213,-6.042C260.225,-5.665 260.225,-5.208 260.225,-4.694C260.225,-4.18 260.225,-3.734 260.213,-3.346C260.201,-2.969 260.178,-2.661 260.131,-2.432C260.084,-2.181 260.002,-2.01 259.885,-1.896C259.768,-1.781 259.592,-1.713 259.393,-1.713C259.194,-1.713 259.053,-1.781 258.936,-1.896C258.819,-2.01 258.737,-2.181 258.678,-2.432C258.631,-2.661 258.596,-2.969 258.584,-3.346C258.561,-3.734 258.561,-4.18 258.561,-4.694ZM267.037,0.001L267.037,-12.518L264.423,-12.518L264.423,0.001L267.037,0.001ZM268.575,-4.694C268.575,-3.814 268.622,-3.061 268.739,-2.444C268.856,-1.816 269.043,-1.302 269.325,-0.902C269.594,-0.502 269.957,-0.216 270.403,-0.034C270.86,0.172 271.411,0.252 272.067,0.252C272.735,0.252 273.309,0.172 273.754,-0.034C274.2,-0.216 274.551,-0.502 274.821,-0.902C275.09,-1.302 275.289,-1.816 275.407,-2.444C275.524,-3.061 275.571,-3.814 275.571,-4.694C275.571,-5.573 275.524,-6.327 275.407,-6.956C275.289,-7.572 275.102,-8.098 274.832,-8.498C274.551,-8.897 274.2,-9.194 273.754,-9.377C273.309,-9.56 272.735,-9.663 272.067,-9.663C271.411,-9.663 270.86,-9.56 270.403,-9.377C269.957,-9.194 269.594,-8.897 269.325,-8.498C269.055,-8.098 268.879,-7.572 268.762,-6.956C268.645,-6.327 268.575,-5.573 268.575,-4.694ZM271.235,-4.694C271.235,-5.208 271.235,-5.665 271.258,-6.042C271.27,-6.43 271.305,-6.727 271.352,-6.978C271.41,-7.23 271.493,-7.412 271.61,-7.527C271.727,-7.641 271.868,-7.698 272.067,-7.698C272.266,-7.698 272.442,-7.641 272.559,-7.527C272.676,-7.412 272.758,-7.23 272.805,-6.978C272.852,-6.727 272.875,-6.43 272.887,-6.042C272.899,-5.665 272.899,-5.208 272.899,-4.694C272.899,-4.18 272.899,-3.734 272.887,-3.346C272.875,-2.969 272.852,-2.661 272.805,-2.432C272.758,-2.181 272.676,-2.01 272.559,-1.896C272.442,-1.781 272.266,-1.713 272.067,-1.713C271.868,-1.713 271.727,-1.781 271.61,-1.896C271.493,-2.01 271.41,-2.181 271.352,-2.432C271.305,-2.661 271.27,-2.969 271.258,-3.346C271.235,-3.734 271.235,-4.18 271.235,-4.694ZM283.765,-9.411L281.386,-9.411L281.386,-8.361C281.046,-8.772 280.695,-9.092 280.331,-9.309C279.98,-9.526 279.581,-9.628 279.171,-9.628C278.644,-9.628 278.199,-9.457 277.8,-9.126C277.402,-8.772 277.156,-8.338 277.05,-7.812C277.003,-7.492 276.957,-7.081 276.921,-6.556C276.863,-6.03 276.851,-5.379 276.851,-4.614C276.851,-3.917 276.863,-3.335 276.921,-2.866C276.968,-2.398 277.039,-2.033 277.156,-1.781C277.355,-1.313 277.636,-0.97 277.988,-0.719C278.328,-0.468 278.738,-0.353 279.195,-0.353C279.535,-0.353 279.863,-0.433 280.179,-0.582C280.496,-0.73 280.812,-0.947 281.128,-1.244C281.152,-1.027 281.152,-0.845 281.163,-0.662L281.163,-0.148C281.163,0.412 281.117,0.812 280.976,1.063C280.859,1.314 280.613,1.428 280.249,1.428C279.71,1.428 279.453,1.097 279.453,0.412L276.851,0.412C276.851,1.371 277.121,2.045 277.648,2.502C278.187,2.948 278.996,3.165 280.121,3.165C281.55,3.165 282.558,2.765 283.167,1.988C283.449,1.611 283.613,1.189 283.683,0.697C283.73,0.218 283.765,-0.353 283.765,-0.982L283.765,-9.411ZM279.499,-5.95C279.499,-6.464 279.57,-6.83 279.699,-7.081C279.816,-7.333 280.027,-7.447 280.331,-7.447C280.531,-7.447 280.683,-7.39 280.777,-7.31C280.894,-7.207 280.976,-7.058 281.035,-6.876C281.082,-6.681 281.117,-6.43 281.128,-6.145C281.152,-5.848 281.152,-5.494 281.152,-5.117L281.152,-4.728C281.152,-3.952 281.093,-3.38 281.011,-2.992C280.929,-2.615 280.683,-2.41 280.32,-2.41C280.12,-2.41 279.968,-2.478 279.851,-2.592C279.745,-2.718 279.663,-2.901 279.617,-3.152C279.57,-3.38 279.535,-3.677 279.511,-4.031C279.499,-4.374 279.499,-4.797 279.499,-5.265L279.499,-5.95ZM285.576,0.001L288.189,0.001L288.189,-9.411L285.576,-9.411L285.576,0.001ZM285.576,-10.337L288.189,-10.337L288.189,-12.621L285.576,-12.621L285.576,-10.337ZM292.466,-5.973C292.455,-6.065 292.455,-6.156 292.455,-6.247L292.455,-6.499C292.455,-6.978 292.525,-7.333 292.654,-7.538C292.783,-7.755 293.017,-7.881 293.357,-7.881C293.966,-7.881 294.271,-7.424 294.271,-6.533L294.271,-6.259C294.259,-6.179 294.259,-6.076 294.236,-5.973L292.466,-5.973ZM294.165,-3.3C294.189,-3.209 294.189,-3.129 294.201,-3.061L294.201,-2.844C294.201,-2.044 293.908,-1.644 293.31,-1.644C292.935,-1.644 292.689,-1.781 292.572,-2.067C292.443,-2.352 292.372,-2.798 292.372,-3.415C292.372,-3.552 292.372,-3.7 292.384,-3.849C292.384,-3.997 292.384,-4.157 292.408,-4.351L296.685,-4.351L296.685,-5.482C296.685,-6.156 296.65,-6.739 296.603,-7.264C296.533,-7.778 296.333,-8.223 296.017,-8.612C295.454,-9.309 294.552,-9.663 293.322,-9.663C292.091,-9.663 291.177,-9.343 290.591,-8.692C290.392,-8.475 290.24,-8.223 290.122,-7.938C290.005,-7.664 289.911,-7.355 289.853,-7.024C289.806,-6.693 289.771,-6.327 289.759,-5.928C289.736,-5.528 289.736,-5.094 289.736,-4.614C289.736,-3.677 289.794,-2.901 289.876,-2.25C289.958,-1.599 290.193,-1.085 290.556,-0.662C290.802,-0.388 291.177,-0.171 291.623,0.001C292.068,0.172 292.607,0.252 293.205,0.252C295.49,0.252 296.638,-0.845 296.638,-3.061L296.638,-3.3L294.165,-3.3ZM297.702,-2.981L297.702,-2.752C297.702,-1.793 297.983,-1.062 298.545,-0.548C299.12,-0.011 299.916,0.252 300.971,0.252C302.049,0.252 302.893,-0.011 303.479,-0.536C304.065,-1.05 304.346,-1.781 304.346,-2.729C304.346,-3.163 304.299,-3.529 304.182,-3.849C304.065,-4.157 303.877,-4.431 303.666,-4.683C303.444,-4.934 303.163,-5.151 302.834,-5.345C302.483,-5.528 302.096,-5.733 301.651,-5.928C301.428,-6.03 301.229,-6.11 301.053,-6.19C300.866,-6.282 300.713,-6.362 300.596,-6.442C300.479,-6.533 300.385,-6.647 300.315,-6.761C300.245,-6.876 300.221,-7.013 300.221,-7.173C300.221,-7.412 300.303,-7.595 300.444,-7.744C300.596,-7.892 300.819,-7.961 301.077,-7.961C301.393,-7.961 301.616,-7.858 301.745,-7.664C301.862,-7.447 301.932,-7.115 301.944,-6.647L304.241,-6.647L304.241,-6.807C304.241,-7.732 303.983,-8.44 303.432,-8.92C302.881,-9.411 302.084,-9.663 301.03,-9.663C300.514,-9.663 300.069,-9.594 299.67,-9.457C299.272,-9.309 298.932,-9.126 298.651,-8.875C298.37,-8.623 298.17,-8.338 298.018,-7.995C297.866,-7.641 297.807,-7.264 297.807,-6.841C297.807,-6.464 297.866,-6.11 298.018,-5.756C298.147,-5.414 298.346,-5.117 298.616,-4.842C298.956,-4.5 299.331,-4.226 299.752,-4.031C300.163,-3.826 300.584,-3.632 301.018,-3.415C301.311,-3.266 301.545,-3.129 301.709,-2.992C301.885,-2.866 301.967,-2.661 301.967,-2.398C301.967,-2.147 301.885,-1.953 301.709,-1.793C301.545,-1.644 301.334,-1.564 301.065,-1.564C300.432,-1.564 300.104,-2.033 300.045,-2.981L297.702,-2.981Z" style="fill:white;fill-rule:nonzero;"/>
        </g>
    </g>
</svg>
